<svg xmlns="http://www.w3.org/2000/svg" viewBox="0 0 664 360"><g fill="none" stroke-width="2"><path stroke="#ffd4dd" d="M203.54 57.75q-4.59 8.91-6.34 18.98" vector-effect="non-scaling-stroke"/><path stroke="#fccdd8" d="m197.2 76.73-.16 60.77" vector-effect="non-scaling-stroke"/><path stroke="#f8c0cf" d="M197.04 137.5v41" vector-effect="non-scaling-stroke"/><path stroke="#f4b5c6" d="M197.04 178.5v41" vector-effect="non-scaling-stroke"/><path stroke="#efa8bd" d="m197.04 219.5.02 32.94q.01 5.69 2.48 12.06" vector-effect="non-scaling-stroke"/><path stroke="#c1afb4" d="M199.54 264.5c4.22 13.89 16.8 24.25 30.31 27.3q5.31 1.2 19.89 1.2 76.69.02 153.36-.02 12.89 0 18.53-1.5 14.63-3.89 23.91-16.98" vector-effect="non-scaling-stroke"/><path stroke="#efa8bd" d="M445.54 274.5q7.46-10.79 7.47-24 .02-24-.05-48" vector-effect="non-scaling-stroke"/><path stroke="#f8c0cf" d="M452.96 202.5v-43.75" vector-effect="non-scaling-stroke"/><path stroke="#fccdd8" d="m452.96 158.75-.05-81.07" vector-effect="non-scaling-stroke"/><path stroke="#ffd4dd" d="M452.91 77.68q-.88-5.98-2.97-11.64" vector-effect="non-scaling-stroke"/><path stroke="#fee5eb" d="M449.94 66.04c-4.61-18.65-23.33-29.63-41.71-29.2q-18.08.43-36.17.76c-6.87.13-16.13-.21-24.25.14q-9.57.41-17.15.37-12.36-.07-24.75.84" vector-effect="non-scaling-stroke"/><path stroke="#ffd4dd" d="m305.91 38.95-14.41.11" vector-effect="non-scaling-stroke"/><path stroke="#fee5eb" d="M291.5 39.06q-7.35.07-14.7-.21c-2.89-.12-7.4.32-11.21-.39q-3.84-.71-6.25-.75c-11.31-.19-22.27-2.08-33.1 1.45q-14.58 4.73-22.7 18.59" vector-effect="non-scaling-stroke"/><path stroke="#febac8" d="M291.5 39.06c-10.42.88-20.78.2-31.15 1.4q-8.22.94-16.48 1.22-9.7.32-13.61 1.28c-10.72 2.64-16.08 7.19-23.79 14.93a1 .99 28.2 0 1-.91.27l-2.02-.41" vector-effect="non-scaling-stroke"/><path stroke="#fba2b5" d="m452.91 77.68-2.64-1.19a.98.97 50.9 0 0-.62-.07c-5.51 1.17-10.11-.33-15.67.83-2.72.56-5.58.07-8.54.62-2.98.57-5.57-.22-8.6.76q-.18.06-.37.05l-5.21-.28a.27.14 1.7 0 1-.26-.15l.01-.29a.26.26 0 0 0-.33-.26q-2.22.61-4.36.17c-2.63-.54-4.15-.12-6.58.17q-.26.04-.5-.06c-3.45-1.43-5.29.32-8.36.04q-4.22-.39-8.35-1.35c-3.17-.73-6.02-.09-9.2-.04q-1.51.02-2.29-.84a1.01 1 40.8 0 0-1.57.11l-18.8 27.53q-1.07 1.57.82 1.57 30.28-.01 60.55.01c1.06 0 2.42.31 3.55.41q3.47.32 3.5 2.58l.34 28a.99.96-27.3 0 1-.21.63q-1.48 1.89-3.76 2.62a.99.98 59.9 0 1-1.04-.28l-2.55-2.82a.41.41 0 0 0-.68.11l-.13.31q-.24.55-.48 0-.32-.74-.35-1.57-.36-9.78-.23-19.6a1 .99-.8 0 0-1.05-1.01q-6.73.34-13.86.26c-51.76-.61-103.42-.17-154.75-.14a1 1 0 0 0-1 1.01q.5 33.61-.11 65.19" vector-effect="non-scaling-stroke"/><path stroke="#f5ccd7" d="M239.23 180.71c-1.42.44-2.39.53-2.6-1.23q-3.48-28.5-2.73-57.19a1.01 1.01 0 0 0-1.25-1l-1.73.44" vector-effect="non-scaling-stroke"/><path stroke="#fba2b5" d="M230.92 121.73q-1.68-7.45-.35-15a1.02 1.01 86.7 0 1 .7-.79q2.4-.72 4.98-.74 27.91-.24 55.81-.12 4.7.02 8.3-.4 2.64-.31.27-1.51-19.52-9.86-35.44-19.37-2.2-1.32-2.02-4.03.01-.18-.05-.01c-.41 1.14.11-2.02.24-2.39a1.01 1-69.2 0 0-.57-1.28q-1.25-.5-1.8-.42c-4.71.68-9.72.22-13.96.64-11.72 1.14-23.79.51-35.54-.03-2.21-.1-4.45.79-6.96.28q-2.52-.51-3.65-.4-1.83.19-3.68.57" vector-effect="non-scaling-stroke"/><path stroke="#febac8" d="M449.94 66.04q-6.76-9.33-12.25-14.23c-8.59-7.66-18.15-9.41-30.57-9.91-20.6-.84-41.49.45-61.94-1.58q-5.48-.55-11.89-.45-13.71.22-27.38-.92" vector-effect="non-scaling-stroke"/><path stroke="#eaadc0" d="M257.39 182.53c6.6 1.63 23.56 6.24 20.37 15.94" vector-effect="non-scaling-stroke"/><path stroke="#da849f" d="M277.76 198.47c-9.18 14.62-33.01 18.51-48.8 17.69" vector-effect="non-scaling-stroke"/><path stroke="#eaadc0" d="M228.96 216.16c-2.17-26.95-5.6-58.09-11.25-85.41" vector-effect="non-scaling-stroke"/><path stroke="#eeb7c9" d="m217.71 130.75-.5-1.75" vector-effect="non-scaling-stroke"/><path stroke="#f2c4d2" d="m230.92 121.73-13.04 5.46a1.02.99-89.6 0 0-.55.56q-.22.57-.12 1.25" vector-effect="non-scaling-stroke"/><path stroke="#f48da7" d="M217.21 129q-1.58 1.24-.69 3.05a1.01 1.01 0 0 1 .05.76l-.56 1.7a1 1 0 0 1-1.07.67q-5.65-.71-11.28-3.31-2.26-1.04-4.77-.35a1.01.99-5.4 0 0-.72.85q-.16 1.37-.43.48-.34-1.11-.41.05l-.29 4.6m255.92 21.25q-.94-1.62-2.03-.36a1.01 1 18.9 0 1-.71.34q-3.8.17-7.61.3c-1.84.06-2.69-.88-4.61-.64q-4.17.51-8.42-.26a.61.58-16.3 0 1-.35-.18q-.42-.44-.69.3" vector-effect="non-scaling-stroke"/><path stroke="#f2c4d2" d="m428.54 158.25.18-5.9a1 .99 2.4 0 0-.95-1.02l-3.37-.19a1 .99-85.9 0 0-1.05.92q-.55 7.05.4 13.98" vector-effect="non-scaling-stroke"/><path stroke="#e15a7e" d="M423.75 166.04c-.52.74-.71 3.59-1.33 3.55a.51.51 0 0 1-.47-.43l-.57-3.41" vector-effect="non-scaling-stroke"/><path stroke="#f2c4d2" d="M421.38 165.75q.79-6.66-.07-13.48a1 .99 87.6 0 0-.95-.88l-3.07-.11a1 1 0 0 0-1.03 1.09l1.24 13.84" vector-effect="non-scaling-stroke"/><path stroke="#e15a7e" d="M417.5 166.21q-1.12 2.76.07 4.37" vector-effect="non-scaling-stroke"/><path stroke="#f2c4d2" d="M417.57 170.58q.64 14.72 2.39 29.42" vector-effect="non-scaling-stroke"/><path stroke="#f48da7" d="m419.96 200-5.32.95a.82.8-3.8 0 0-.66.74l-.02.31" vector-effect="non-scaling-stroke"/><path stroke="#f2c4d2" d="M413.96 202q-2.6-30.21-5.06-60.44-.36-4.41-.43-8.97a1 1 0 0 0-1.08-.99l-9.3.78a.99.99 0 0 0-.91 1.04l.17 3.55" vector-effect="non-scaling-stroke"/><path stroke="#ec7596" d="M397.35 136.97q-.35 4.51.49 8.9.91 4.75 1.12 7.35c.39 4.64 1.48 9.23 1.69 13.73q.37 7.68 1.38 15.3.62 4.63-2.62 10.28" vector-effect="non-scaling-stroke"/><path stroke="#f2c4d2" d="M399.41 192.53c-.36-3.07-2.44-23.11-4.41-23.82" vector-effect="non-scaling-stroke"/><path stroke="#e15a7e" d="M395 168.71q.71-2.22-.3-4.21" vector-effect="non-scaling-stroke"/><path stroke="#f2c4d2" d="M394.7 164.5c.11-2.11.6-15.71-2.84-14.98" vector-effect="non-scaling-stroke"/><path stroke="#f48da7" d="m391.86 149.52-.39-15.28a1 1 0 0 0-.99-.97q-24.47-.27-48.96.47" vector-effect="non-scaling-stroke"/><path stroke="#f2c4d2" d="m341.52 133.74.2-11.55a1 .99 80.1 0 0-1.35-.95l-14.15 5.4a1.02 1 87.7 0 0-.6.66q-.56 1.9.09 3.7" vector-effect="non-scaling-stroke"/><path stroke="#f48da7" d="M325.71 131q-.56.52-.71 1.21a1 .99-84.9 0 1-.91.77q-11.48.71-23.2.14" vector-effect="non-scaling-stroke"/><path stroke="#f2c4d2" d="m300.89 133.12-.15-.64a1 .99 83.9 0 0-.94-.76q-5.57-.18-10.87 1.39" vector-effect="non-scaling-stroke"/><path stroke="#f48da7" d="m288.93 133.11-29.41.33a1 1 0 0 0-.99.99l-.24 33.07" vector-effect="non-scaling-stroke"/><path stroke="#f0839f" d="M258.29 167.5q.57 7.54-.9 15.03" vector-effect="non-scaling-stroke"/><path stroke="#f2c4d2" d="M257.39 182.53q-9.45-1.99-18.16-1.82" vector-effect="non-scaling-stroke"/><path stroke="#d9436c" d="M298.5 205.96q-1.15 1.91.15 3.6a1.02 1.02 0 0 0 .76.39l5.93.16a1 1 0 0 0 1.02-1.13l-.36-2.69" vector-effect="non-scaling-stroke"/><path stroke="#eaadc0" d="m312.46 204.25.79 6.46" vector-effect="non-scaling-stroke"/><path stroke="#d9436c" d="M313.25 210.71q-1.09 1.92.26 4.9" vector-effect="non-scaling-stroke"/><path stroke="#ec7696" d="M313.51 215.61q-25.26.54-50.55-.44" vector-effect="non-scaling-stroke"/><path stroke="#d9436c" d="M262.96 215.17q5.13-3.49 9.65-6.58 5.41-3.7 5.15-10.12" vector-effect="non-scaling-stroke"/><path stroke="#f0839f" d="M268.71 167.25q1.53 6.23 7.75 3.5" vector-effect="non-scaling-stroke"/><path stroke="#eaadc0" d="M276.46 170.75q4.49 19.25 7.74 38.75" vector-effect="non-scaling-stroke"/><path stroke="#d9436c" d="M284.2 209.5q-1.19 1.81-.14 3.84a1.01 1-17.1 0 0 1.01.53l6.96-.88a1 1 0 0 0 .83-1.29q-.29-.96.07-2.74" vector-effect="non-scaling-stroke"/><path stroke="#eaadc0" d="M292.93 208.96q-1.04-13-4-37.14-.32-2.57-2.43-2.78" vector-effect="non-scaling-stroke"/><path stroke="#d9436c" d="M286.5 169.04c1.84.33 1.04-2.43.75-3.5" vector-effect="non-scaling-stroke"/><path stroke="#ec7696" d="M217.71 130.75c-1.12 2.91.03 4.89.5 7.45q2.21 12.05 3.53 24.24c.46 4.2 2.18 7.33-.09 12.04a.96.94 89.4 0 1-.44.46q-2.3 1.17-5.71.56c-3.16-.56-6.37 1.24-9.63.91q-3.78-.39-7.56-.66a1.01 1-85 0 0-1.07.9l-.2 1.85" vector-effect="non-scaling-stroke"/><path stroke="#dd4d75" d="m262.96 215.17-14.71 3.62m-8.83 1.12-9.42.38" vector-effect="non-scaling-stroke"/><path stroke="#d9436c" d="M228.96 216.16q-.52 1.21-.21 3.05" vector-effect="non-scaling-stroke"/><path stroke="#e45e84" d="M228.75 219.21q-.21-.08-.28-.28a.43.42 73.8 0 0-.48-.27q-2.99.66-5.75-.62a.96.94-36.3 0 0-.57-.08q-9.02 1.34-18.1.39-2.28-.24-4.72-.06a1.01 1 75.6 0 1-1-.6q-.89-2.09-.81 1.81" vector-effect="non-scaling-stroke"/><path stroke="#dd4d75" d="M421.58 211.09q-2.21-.06-1.04 3.41m-10.79-4.46 3.34.08a.99.98 11.3 0 0 .95-.63q.62-1.58-.33-3.24" vector-effect="non-scaling-stroke"/><path stroke="#eaadc0" d="m306.54 204.5-.54 1.79" vector-effect="non-scaling-stroke"/><path stroke="#da849f" d="m306 206.29-7.5-.33" vector-effect="non-scaling-stroke"/><path stroke="#eaadc0" d="M298.5 205.96q-2.8-32.59-7.51-64.96-.38-2.61-1.54-5.29" vector-effect="non-scaling-stroke"/><path stroke="#eeb7c9" d="M289.45 135.71q.26-1.13-.52-2.6" vector-effect="non-scaling-stroke"/><path stroke="#f48da7" d="M334.71 196.5q-.81.24-.92-.45-1.17-6.99-3.63-15.16a1.01 1 4.2 0 0-.54-.62l-4.39-1.99a1 .99-50.1 0 0-.99.09l-2.7 1.88" vector-effect="non-scaling-stroke"/><path stroke="#eeb7c9" d="M321.54 180.25q.38-4.85-.88-9.51" vector-effect="non-scaling-stroke"/><path stroke="#dd4d75" d="M320.66 170.74q1.2-2.39-.16-4.41" vector-effect="non-scaling-stroke"/><path stroke="#eeb7c9" d="M320.5 166.33q.85-7.09.5-14.21a1.01 1.01 0 0 0-.95-.95l-3.41-.19a1 1 0 0 0-1.06 1.03l.46 13.99" vector-effect="non-scaling-stroke"/><path stroke="#dd4d75" d="m316.04 166-.79 4.21" vector-effect="non-scaling-stroke"/><path stroke="#eeb7c9" d="M315.25 170.21H315" vector-effect="non-scaling-stroke"/><path stroke="#dd4d75" d="M315 170.21q-1.28-1.3-1.09-3.12a1.01.99 19 0 0-.47-.94l-.23-.15" vector-effect="non-scaling-stroke"/><path stroke="#eeb7c9" d="M313.21 166q.05-.18.25-.33a.79.78 71.9 0 0 .33-.66l-.14-12.8a1.01.99-2.4 0 0-1.08-.98l-3.11.23a1 1 0 0 0-.92 1.09l1.25 13.7" vector-effect="non-scaling-stroke"/><path stroke="#dd4d75" d="M309.79 166.25q-1.3 2.43.58 4.38" vector-effect="non-scaling-stroke"/><path stroke="#eeb7c9" d="M310.37 170.63c-.64.35-.9 1.14-.81 1.9q1.76 15.83 2.9 31.72" vector-effect="non-scaling-stroke"/><path stroke="#ec7696" d="M312.46 204.25q-2.99-.41-5.92.25" vector-effect="non-scaling-stroke"/><path stroke="#eeb7c9" d="m306.54 204.5-5.65-71.38" vector-effect="non-scaling-stroke"/><path stroke="#da849f" d="M428.79 170.77q-5.09-.67-11.22-.19" vector-effect="non-scaling-stroke"/><path stroke="#d43563" d="M406 205.71q-1.14 2.15.29 3.82a1 .98 63.3 0 0 .97.33q1.26-.27 2.49.18" vector-effect="non-scaling-stroke"/><path stroke="#e8688d" d="m409.75 210.04.19 22.95a1 1 0 0 1-1 1.01H240.75a1 1 0 0 1-1-.97l-.33-13.12" vector-effect="non-scaling-stroke"/><path stroke="#d43563" d="m239.42 219.91 8.83-1.12" vector-effect="non-scaling-stroke"/><path stroke="#e8688d" d="M248.25 218.79q.66 3.14 2.98 5.33a1.02 1.01 70.6 0 0 .51.25q3.64.66 6.26.66c35.89-.1 71.81.32 107.69-.01q16.43-.15 27.81 0 3.41.05 6.09-1.38a1.05 1.04 86.7 0 0 .47-.53q2-5.34-.06-10.4" vector-effect="non-scaling-stroke"/><path stroke="#d43563" d="M400 212.71q.75-1.87.2-3.68" vector-effect="non-scaling-stroke"/><path stroke="#e59fb7" d="M400.2 209.03q.4-8.22-.79-16.5" vector-effect="non-scaling-stroke"/><path stroke="#eeb7c9" d="m413.96 202-.25 4.25" vector-effect="non-scaling-stroke"/><path stroke="#da849f" d="m413.71 206.25-7.71-.54" vector-effect="non-scaling-stroke"/><path stroke="#e59fb7" d="M406 205.71q-2.34-26.93-6.31-57.65-.78-5.99-2.34-11.09" vector-effect="non-scaling-stroke"/><path stroke="#eeb7c9" d="m341.52 133.74.42 16.91" vector-effect="non-scaling-stroke"/><path stroke="#f2c4d2" d="m341.94 150.65.17 4.57" vector-effect="non-scaling-stroke"/><path stroke="#eeb7c9" d="m342.11 155.22 2.06 24.98a1 1 0 0 0 1.22.89c11.21-2.55 31.09 3.21 39.86 11.2" vector-effect="non-scaling-stroke"/><path stroke="#eaadc0" d="M385.25 192.29q1.46 3.59-.46 6.96" vector-effect="non-scaling-stroke"/><path stroke="#da849f" d="M384.79 199.25c-8.73 13.97-33.06 17.5-48.04 17.21" vector-effect="non-scaling-stroke"/><path stroke="#eaadc0" d="m336.75 216.46-1.29-12.64" vector-effect="non-scaling-stroke"/><path stroke="#f2c4d2" d="m335.46 203.82-.75-7.32" vector-effect="non-scaling-stroke"/><path stroke="#eeb7c9" d="M334.71 196.5q-2.87-32.98-9-65.5" vector-effect="non-scaling-stroke"/><path stroke="#da849f" d="M421.38 165.75q-2.06.94-3.88.46" vector-effect="non-scaling-stroke"/><path stroke="#e59fb7" d="m429.54 196.25-.29 14.54" vector-effect="non-scaling-stroke"/><path stroke="#da849f" d="m429.25 210.79-7.67.3" vector-effect="non-scaling-stroke"/><path stroke="#eeb7c9" d="M421.58 211.09q-1.45-5.43-1.62-11.09m-28.1-50.48q-2.47-.71-4.11.94" vector-effect="non-scaling-stroke"/><path stroke="#dd4d75" d="m387.75 150.46-.98.42" vector-effect="non-scaling-stroke"/><path stroke="#eeb7c9" d="M386.77 150.88q-2.35-.76-4.71-.1a1.02 1.01-8.9 0 0-.73 1l.11 2.99" vector-effect="non-scaling-stroke"/><path stroke="#dd4d75" d="M381.44 154.77q.32 8.05 3.07 15.58" vector-effect="non-scaling-stroke"/><path stroke="#eeb7c9" d="m384.51 170.35.85 6.33" vector-effect="non-scaling-stroke"/><path stroke="#ec7696" d="M385.36 176.68q-.77 6.18.91 12.16c.42 1.49-.05 2.43-1.02 3.45" vector-effect="non-scaling-stroke"/><path stroke="#f48da7" d="M342.11 155.22q14.4 9.09 29.17 17.47c3.86 2.19 7.79 2.89 9.41-2.19a1 .95 46.4 0 0 0-.61q-1.16-3.6-5.5-6.36-19.48-12.38-24.76-14.97-4.84-2.38-8.49 2.09" vector-effect="non-scaling-stroke"/><path stroke="#da849f" d="M394.7 164.5q-2.21.54-3.96.14a1 1 0 0 1-.76-.81l-2.23-13.37" vector-effect="non-scaling-stroke"/><path stroke="#ec7696" d="M289.45 135.71q-.62 4.31.36 8.42c1.47 6.17 1.73 12.37 3.17 18.58a1.01 1.01 0 0 1-.67 1.18l-5.06 1.65" vector-effect="non-scaling-stroke"/><path stroke="#dd4d75" d="m287.25 165.54-.54-.79" vector-effect="non-scaling-stroke"/><path stroke="#eeb7c9" d="M286.71 164.75c1.33-3.49-.07-10.26-.52-14.33a1 .99 86.2 0 0-1.01-.89l-3.75.08a1.01 1.01 0 0 0-.97 1.15l2.04 13.95" vector-effect="non-scaling-stroke"/><path stroke="#dd4d75" d="M282.5 164.71q-.79.08-.96 1.09" vector-effect="non-scaling-stroke"/><path stroke="#eeb7c9" d="M281.54 165.8q-1.66-5.82-2.26-11.83-.55-5.58-5.15-2.72a.99.98 68.5 0 0-.45 1.04l2.56 12.68a1 1 0 0 0 1.2.78l1.85-.41a1 .99-10.4 0 1 1.21.83l.33 2.33a1 1 0 0 1-.79 1.12l-3.29.67" vector-effect="non-scaling-stroke"/><path stroke="#f48da7" d="M276.75 170.29q-1.65-3.99-2.05-8.36a1 .99 78.4 0 0-1.3-.86q-4.93 1.59-4.69 6.18" vector-effect="non-scaling-stroke"/><path stroke="#ec7696" d="M268.71 167.25q-4.44.2-8.98-1.06a.8.79-85.7 0 0-1 .87q.1.89-.44.44" vector-effect="non-scaling-stroke"/><path stroke="#e8688d" d="M452.96 202.5q-1.6-2.26-3.21-2.36-9.58-.62-11.5-1.38-4.24-1.68-8.71-2.51" vector-effect="non-scaling-stroke"/><path stroke="#eeb7c9" d="m429.54 196.25-.75-25.48" vector-effect="non-scaling-stroke"/><path stroke="#dd4d75" d="m428.79 170.77-.33-4.52" vector-effect="non-scaling-stroke"/><path stroke="#da849f" d="m400.2 209.03-8.2.43" vector-effect="non-scaling-stroke"/><path stroke="#eaadc0" d="m392 209.46-6.64-32.78" vector-effect="non-scaling-stroke"/><path stroke="#eeb7c9" d="m428.54 158.25-.08 8" vector-effect="non-scaling-stroke"/><path stroke="#da849f" d="m428.46 166.25-4.71-.21M395 168.71l-10.49 1.64" vector-effect="non-scaling-stroke"/><path stroke="#e15a7e" d="M388.25 165.29q-.69 1.53-.12 2.4 1.18 1.81 1.46-.33.18-1.37-.8-2.61" vector-effect="non-scaling-stroke"/><path stroke="#da849f" d="m281.54 165.8.24 2.46a1 .99 86.3 0 0 1.02.9l3.7-.12m6.43 39.92-8.73.54" vector-effect="non-scaling-stroke"/><path stroke="#f2c4d2" d="m276.46 170.75.29-.46m44.79 9.96.25 19.25" vector-effect="non-scaling-stroke"/><path stroke="#eaadc0" d="M321.79 199.5q.3 5.69-.54 11.29" vector-effect="non-scaling-stroke"/><path stroke="#da849f" d="m321.25 210.79-8-.08" vector-effect="non-scaling-stroke"/><path stroke="#dd4d75" d="M321.27 215.34q-3.92-.54-7.76.27" vector-effect="non-scaling-stroke"/><path stroke="#b15872" d="m445.54 274.5-1.41-.17a1.01 1 22.3 0 0-.92.38q-8.73 11.49-21.85 15.02-5.59 1.5-19.87 1.51-78.22.03-156.44-.01-10.48 0-15.84-1.39-18.64-4.85-27.19-23.29c-.56-1.2-1.37-1.49-2.48-2.05" vector-effect="non-scaling-stroke"/><path stroke="#d43563" d="m228.75 219.21 1.25 1.08" vector-effect="non-scaling-stroke"/><path stroke="#e8688d" d="M230 220.29q-.23 9.13.19 18.28.22 4.81 5.07 4.87 9.45.11 18.71.06a.99.99 0 0 1 .99.83c3.17 19.08 26.61 19.73 30.56-.05a1 1 0 0 1 .98-.8l80.3.03a1 1 0 0 1 .98.81c3.89 19.84 26.36 19.17 30.71-.09a1 1 0 0 1 1-.78q7.47.15 14.95-.05c4.09-.11 5-2.66 5.03-6.4q.07-10.35.02-20.71c0-.87.34-1.39 1.05-1.79" vector-effect="non-scaling-stroke"/><path stroke="#d43563" d="M420.54 214.5q3.95.62 7.93.14a1.02 1-84.4 0 0 .83-.69q.49-1.52-.05-3.16" vector-effect="non-scaling-stroke"/><path stroke="#da849f" d="m315 170.21-4.63.42m10.29.11-5.41-.53m-2.04-4.21-3.42.25" vector-effect="non-scaling-stroke"/><path stroke="#f0839f" d="M335.46 203.82q-5.28-.88-9.16-4.55a1.01.99-26.7 0 0-.81-.26l-3.7.49" vector-effect="non-scaling-stroke"/><path stroke="#da849f" d="m320.5 166.33-4.46-.33" vector-effect="non-scaling-stroke"/><path stroke="#dd4d75" d="m400 212.71-6.91 1.37m-22.38.62q-15.94 5.76-32.99 5.56a1 1 0 0 1-.8-.43q-.94-1.34-.63-3.08" vector-effect="non-scaling-stroke"/><path stroke="#d9436c" d="m336.75 216.46-.46.29" vector-effect="non-scaling-stroke"/><path stroke="#ec7696" d="M336.29 216.75c-1.27-1.42-12.45-1.26-15.02-1.41" vector-effect="non-scaling-stroke"/><path stroke="#d9436c" d="M321.27 215.34q1.08-2.38-.02-4.55m70.75-1.33q-2.17 2.24 1.09 4.62" vector-effect="non-scaling-stroke"/><path stroke="#ec7696" d="M393.09 214.08q-11.02 3.44-22.38.62" vector-effect="non-scaling-stroke"/><path stroke="#d9436c" d="M370.71 214.7c6.19-3.51 12.98-7.04 15.12-14.38q.38-1.3-1.04-1.07" vector-effect="non-scaling-stroke"/><path stroke="#da849f" d="m386.77 150.88 2.02 13.87" vector-effect="non-scaling-stroke"/><path stroke="#f2c4d2" d="m388.79 164.75-.54.54" vector-effect="non-scaling-stroke"/><path stroke="#da849f" d="M388.25 165.29q-1.57-.17-2.87.63a1 .99-22.4 0 1-1.5-.62l-2.44-10.53m-94.73 9.98-4.21-.04" vector-effect="non-scaling-stroke"/><path stroke="#eaadc0" d="m245.04 195.25 1.29 10.07q.22 1.75 1.61.66l1.31-1.02" vector-effect="non-scaling-stroke"/><path stroke="#f2c4d2" d="M249.25 204.96q3.99-2.38 7.25-5.67" vector-effect="non-scaling-stroke"/><path stroke="#da849f" d="M256.5 199.29q1.52-.61 2.65-1.58a1 .99 35.1 0 0-.3-1.69l-12.96-4.94a1 .99 12.1 0 0-1.35.87q-.11 1.67.5 3.3" vector-effect="non-scaling-stroke"/><path stroke="#e15a7e" d="M256.5 199.29q-4.27-2.52-8.89-3.51" vector-effect="non-scaling-stroke"/><path stroke="#d9436c" d="m247.61 195.78-2.57-.53" vector-effect="non-scaling-stroke"/><path stroke="#f0839f" d="m247.61 195.78 1.64 9.18" vector-effect="non-scaling-stroke"/><path stroke="#eaadc0" d="M352.83 195.62q.12 5.11 1.31 9.8a1 1 0 0 0 1.52.59q4.32-2.84 8.17-6.47" vector-effect="non-scaling-stroke"/><path stroke="#da849f" d="m363.83 199.54 2.7-1.94q1.51-1.1-.24-1.75l-12.69-4.75a1 1 0 0 0-1.33 1.1l.56 3.42" vector-effect="non-scaling-stroke"/><path stroke="#d9436c" d="M363.83 199.54q-4.88-3.94-11-3.92" vector-effect="non-scaling-stroke"/><path stroke="#e8688d" d="M275.89 245.02q.89-1.51-.86-1.51l-9.27-.01a1 1 0 0 0-.96 1.28q.76 2.61 2.68 3.76 4.7 2.8 8.41-3.52m111.67 1.54q.62-.85 1.05-1.52.98-1.54-.84-1.54h-9.3a1 1 0 0 0-.91 1.41q1.42 3.12 2.77 3.82 4.1 2.13 7.23-2.17" vector-effect="non-scaling-stroke"/></g><path fill="#fff" d="M0 0h664v360H0V0Zm203.54 57.75q-4.59 8.91-6.34 18.98l-.16 60.77v82l.02 32.94q.01 5.69 2.48 12.06c4.22 13.89 16.8 24.25 30.31 27.3q5.31 1.2 19.89 1.2 76.69.02 153.36-.02 12.89 0 18.53-1.5 14.63-3.89 23.91-16.98 7.46-10.79 7.47-24 .02-24-.05-48v-43.75l-.05-81.07q-.88-5.98-2.97-11.64c-4.61-18.65-23.33-29.63-41.71-29.2q-18.08.43-36.17.76c-6.87.13-16.13-.21-24.25.14q-9.57.41-17.15.37-12.36-.07-24.75.84l-14.41.11q-7.35.07-14.7-.21c-2.89-.12-7.4.32-11.21-.39q-3.84-.71-6.25-.75c-11.31-.19-22.27-2.08-33.1 1.45q-14.58 4.73-22.7 18.59Z"/><path fill="#fdcad6" d="M291.5 39.06c-10.42.88-20.78.2-31.15 1.4q-8.22.94-16.48 1.22-9.7.32-13.61 1.28c-10.72 2.64-16.08 7.19-23.79 14.93a1 .99 28.2 0 1-.91.27l-2.02-.41q8.12-13.86 22.7-18.59c10.83-3.53 21.79-1.64 33.1-1.45q2.41.04 6.25.75c3.81.71 8.32.27 11.21.39q7.35.28 14.7.21Zm158.44 26.98q-6.76-9.33-12.25-14.23c-8.59-7.66-18.15-9.41-30.57-9.91-20.6-.84-41.49.45-61.94-1.58q-5.48-.55-11.89-.45-13.71.22-27.38-.92 12.39-.91 24.75-.84 7.58.04 17.15-.37c8.12-.35 17.38-.01 24.25-.14q18.09-.33 36.17-.76c18.38-.43 37.1 10.55 41.71 29.2Z"/><path fill="#fea9ba" d="M305.91 38.95q13.67 1.14 27.38.92 6.41-.1 11.89.45c20.45 2.03 41.34.74 61.94 1.58 12.42.5 21.98 2.25 30.57 9.91q5.49 4.9 12.25 14.23 2.09 5.66 2.97 11.64l-2.64-1.19a.98.97 50.9 0 0-.62-.07c-5.51 1.17-10.11-.33-15.67.83-2.72.56-5.58.07-8.54.62-2.98.57-5.57-.22-8.6.76q-.18.06-.37.05l-5.21-.28a.27.14 1.7 0 1-.26-.15l.01-.29a.26.26 0 0 0-.33-.26q-2.22.61-4.36.17c-2.63-.54-4.15-.12-6.58.17q-.26.04-.5-.06c-3.45-1.43-5.29.32-8.36.04q-4.22-.39-8.35-1.35c-3.17-.73-6.02-.09-9.2-.04q-1.51.02-2.29-.84a1.01 1 40.8 0 0-1.57.11l-18.8 27.53q-1.07 1.57.82 1.57 30.28-.01 60.55.01c1.06 0 2.42.31 3.55.41q3.47.32 3.5 2.58l.34 28a.99.96-27.3 0 1-.21.63q-1.48 1.89-3.76 2.62a.99.98 59.9 0 1-1.04-.28l-2.55-2.82a.41.41 0 0 0-.68.11l-.13.31q-.24.55-.48 0-.32-.74-.35-1.57-.36-9.78-.23-19.6a1 .99-.8 0 0-1.05-1.01q-6.73.34-13.86.26c-51.76-.61-103.42-.17-154.75-.14a1 1 0 0 0-1 1.01q.5 33.61-.11 65.19c-1.42.44-2.39.53-2.6-1.23q-3.48-28.5-2.73-57.19a1.01 1.01 0 0 0-1.25-1l-1.73.44q-1.68-7.45-.35-15a1.02 1.01 86.7 0 1 .7-.79q2.4-.72 4.98-.74 27.91-.24 55.81-.12 4.7.02 8.3-.4 2.64-.31.27-1.51-19.52-9.86-35.44-19.37-2.2-1.32-2.02-4.03.01-.18-.05-.01c-.41 1.14.11-2.02.24-2.39a1.01 1-69.2 0 0-.57-1.28q-1.25-.5-1.8-.42c-4.71.68-9.72.22-13.96.64-11.72 1.14-23.79.51-35.54-.03-2.21-.1-4.45.79-6.96.28q-2.52-.51-3.65-.4-1.83.19-3.68.57 1.75-10.07 6.34-18.98l2.02.41a1 .99 28.2 0 0 .91-.27c7.71-7.74 13.07-12.29 23.79-14.93q3.91-.96 13.61-1.28 8.26-.28 16.48-1.22c10.37-1.2 20.73-.52 31.15-1.4l14.41-.11Z"/><path fill="#f89ab0" d="m452.91 77.68.05 81.07q-.94-1.62-2.03-.36a1.01 1 18.9 0 1-.71.34q-3.8.17-7.61.3c-1.84.06-2.69-.88-4.61-.64q-4.17.51-8.42-.26a.61.58-16.3 0 1-.35-.18q-.42-.44-.69.3l.18-5.9a1 .99 2.4 0 0-.95-1.02l-3.37-.19a1 .99-85.9 0 0-1.05.92q-.55 7.05.4 13.98c-.52.74-.71 3.59-1.33 3.55a.51.51 0 0 1-.47-.43l-.57-3.41q.79-6.66-.07-13.48a1 .99 87.6 0 0-.95-.88l-3.07-.11a1 1 0 0 0-1.03 1.09l1.24 13.84q-1.12 2.76.07 4.37.64 14.72 2.39 29.42l-5.32.95a.82.8-3.8 0 0-.66.74l-.02.31q-2.6-30.21-5.06-60.44-.36-4.41-.43-8.97a1 1 0 0 0-1.08-.99l-9.3.78a.99.99 0 0 0-.91 1.04l.17 3.55q-.35 4.51.49 8.9.91 4.75 1.12 7.35c.39 4.64 1.48 9.23 1.69 13.73q.37 7.68 1.38 15.3.62 4.63-2.62 10.28c-.36-3.07-2.44-23.11-4.41-23.82q.71-2.22-.3-4.21c.11-2.11.6-15.71-2.84-14.98l-.39-15.28a1 1 0 0 0-.99-.97q-24.47-.27-48.96.47l.2-11.55a1 .99 80.1 0 0-1.35-.95l-14.15 5.4a1.02 1 87.7 0 0-.6.66q-.56 1.9.09 3.7-.56.52-.71 1.21a1 .99-84.9 0 1-.91.77q-11.48.71-23.2.14l-.15-.64a1 .99 83.9 0 0-.94-.76q-5.57-.18-10.87 1.39l-29.41.33a1 1 0 0 0-.99.99l-.24 33.07q.57 7.54-.9 15.03-9.45-1.99-18.16-1.82.61-31.58.11-65.19a1 1 0 0 1 1-1.01c51.33-.03 102.99-.47 154.75.14q7.13.08 13.86-.26a1 .99-.8 0 1 1.05 1.01q-.13 9.82.23 19.6.03.83.35 1.57.24.55.48 0l.13-.31a.41.41 0 0 1 .68-.11l2.55 2.82a.99.98 59.9 0 0 1.04.28q2.28-.73 3.76-2.62a.99.96-27.3 0 0 .21-.63l-.34-28q-.03-2.26-3.5-2.58c-1.13-.1-2.49-.41-3.55-.41q-30.27-.02-60.55-.01-1.89 0-.82-1.57l18.8-27.53a1.01 1 40.8 0 1 1.57-.11q.78.86 2.29.84c3.18-.05 6.03-.69 9.2.04q4.13.96 8.35 1.35c3.07.28 4.91-1.47 8.36-.04q.24.1.5.06c2.43-.29 3.95-.71 6.58-.17q2.14.44 4.36-.17a.26.26 0 0 1 .33.26l-.01.29a.27.14 1.7 0 0 .26.15l5.21.28q.19.01.37-.05c3.03-.98 5.62-.19 8.6-.76 2.96-.55 5.82-.06 8.54-.62 5.56-1.16 10.16.34 15.67-.83a.98.97 50.9 0 1 .62.07l2.64 1.19Z"/><path fill="#f89ab0" d="m230.92 121.73-13.04 5.46a1.02.99-89.6 0 0-.55.56q-.22.57-.12 1.25-1.58 1.24-.69 3.05a1.01 1.01 0 0 1 .05.76l-.56 1.7a1 1 0 0 1-1.07.67q-5.65-.71-11.28-3.31-2.26-1.04-4.77-.35a1.01.99-5.4 0 0-.72.85q-.16 1.37-.43.48-.34-1.11-.41.05l-.29 4.6.16-60.77q1.85-.38 3.68-.57 1.13-.11 3.65.4c2.51.51 4.75-.38 6.96-.28 11.75.54 23.82 1.17 35.54.03 4.24-.42 9.25.04 13.96-.64q.55-.08 1.8.42a1.01 1-69.2 0 1 .57 1.28c-.13.37-.65 3.53-.24 2.39q.06-.17.05.01-.18 2.71 2.02 4.03 15.92 9.51 35.44 19.37 2.37 1.2-.27 1.51-3.6.42-8.3.4-27.9-.12-55.81.12-2.58.02-4.98.74a1.02 1.01 86.7 0 0-.7.79q-1.33 7.55.35 15Z"/><path fill="#ebeef3" d="M239.23 180.71q8.71-.17 18.16 1.82c6.6 1.63 23.56 6.24 20.37 15.94-9.18 14.62-33.01 18.51-48.8 17.69-2.17-26.95-5.6-58.09-11.25-85.41l-.5-1.75q-.1-.68.12-1.25a1.02.99-89.6 0 1 .55-.56l13.04-5.46 1.73-.44a1.01 1.01 0 0 1 1.25 1q-.75 28.69 2.73 57.19c.21 1.76 1.18 1.67 2.6 1.23Zm5.81 14.54 1.29 10.07q.22 1.75 1.61.66l1.31-1.02q3.99-2.38 7.25-5.67 1.52-.61 2.65-1.58a1 .99 35.1 0 0-.3-1.69l-12.96-4.94a1 .99 12.1 0 0-1.35.87q-.11 1.67.5 3.3Zm96.48-61.51.42 16.91.17 4.57 2.06 24.98a1 1 0 0 0 1.22.89c11.21-2.55 31.09 3.21 39.86 11.2q1.46 3.59-.46 6.96c-8.73 13.97-33.06 17.5-48.04 17.21l-1.29-12.64-.75-7.32q-2.87-32.98-9-65.5-.65-1.8-.09-3.7a1.02 1 87.7 0 1 .6-.66l14.15-5.4a1 .99 80.1 0 1 1.35.95l-.2 11.55Zm11.31 61.88q.12 5.11 1.31 9.8a1 1 0 0 0 1.52.59q4.32-2.84 8.17-6.47l2.7-1.94q1.51-1.1-.24-1.75l-12.69-4.75a1 1 0 0 0-1.33 1.1l.56 3.42Z"/><path fill="#f0809e" d="m217.21 129 .5 1.75c-1.12 2.91.03 4.89.5 7.45q2.21 12.05 3.53 24.24c.46 4.2 2.18 7.33-.09 12.04a.96.94 89.4 0 1-.44.46q-2.3 1.17-5.71.56c-3.16-.56-6.37 1.24-9.63.91q-3.78-.39-7.56-.66a1.01 1-85 0 0-1.07.9l-.2 1.85v-41l.29-4.6q.07-1.16.41-.05.27.89.43-.48a1.01.99-5.4 0 1 .72-.85q2.51-.69 4.77.35 5.63 2.6 11.28 3.31a1 1 0 0 0 1.07-.67l.56-1.7a1.01 1.01 0 0 0-.05-.76q-.89-1.81.69-3.05Z"/><path fill="#e86b8d" d="M217.71 130.75c5.65 27.32 9.08 58.46 11.25 85.41q-.52 1.21-.21 3.05-.21-.08-.28-.28a.43.42 73.8 0 0-.48-.27q-2.99.66-5.75-.62a.96.94-36.3 0 0-.57-.08q-9.02 1.34-18.1.39-2.28-.24-4.72-.06a1.01 1 75.6 0 1-1-.6q-.89-2.09-.81 1.81v-41l.2-1.85a1.01 1-85 0 1 1.07-.9q3.78.27 7.56.66c3.26.33 6.47-1.47 9.63-.91q3.41.61 5.71-.56a.96.94 89.4 0 0 .44-.46c2.27-4.71.55-7.84.09-12.04q-1.32-12.19-3.53-24.24c-.47-2.56-1.62-4.54-.5-7.45Z"/><path fill="#f0809e" d="M325.71 131q6.13 32.52 9 65.5-.81.24-.92-.45-1.17-6.99-3.63-15.16a1.01 1 4.2 0 0-.54-.62l-4.39-1.99a1 .99-50.1 0 0-.99.09l-2.7 1.88q.38-4.85-.88-9.51 1.2-2.39-.16-4.41.85-7.09.5-14.21a1.01 1.01 0 0 0-.95-.95l-3.41-.19a1 1 0 0 0-1.06 1.03l.46 13.99-.79 4.21H315q-1.28-1.3-1.09-3.12a1.01.99 19 0 0-.47-.94l-.23-.15q.05-.18.25-.33a.79.78 71.9 0 0 .33-.66l-.14-12.8a1.01.99-2.4 0 0-1.08-.98l-3.11.23a1 1 0 0 0-.92 1.09l1.25 13.7q-1.3 2.43.58 4.38c-.64.35-.9 1.14-.81 1.9q1.76 15.83 2.9 31.72-2.99-.41-5.92.25l-5.65-71.38q11.72.57 23.2-.14a1 .99-84.9 0 0 .91-.77q.15-.69.71-1.21Z"/><path fill="#ebeef3" d="m300.89 133.12 5.65 71.38-.54 1.79-7.5-.33q-2.8-32.59-7.51-64.96-.38-2.61-1.54-5.29.26-1.13-.52-2.6 5.3-1.57 10.87-1.39a1 .99 83.9 0 1 .94.76l.15.64ZM413.96 202l-.25 4.25-7.71-.54q-2.34-26.93-6.31-57.65-.78-5.99-2.34-11.09l-.17-3.55a.99.99 0 0 1 .91-1.04l9.3-.78a1 1 0 0 1 1.08.99q.07 4.56.43 8.97 2.46 30.23 5.06 60.44Z"/><path fill="#f0809e" d="M288.93 133.11q.78 1.47.52 2.6-.62 4.31.36 8.42c1.47 6.17 1.73 12.37 3.17 18.58a1.01 1.01 0 0 1-.67 1.18l-5.06 1.65-.54-.79c1.33-3.49-.07-10.26-.52-14.33a1 .99 86.2 0 0-1.01-.89l-3.75.08a1.01 1.01 0 0 0-.97 1.15l2.04 13.95q-.79.08-.96 1.09-1.66-5.82-2.26-11.83-.55-5.58-5.15-2.72a.99.98 68.5 0 0-.45 1.04l2.56 12.68a1 1 0 0 0 1.2.78l1.85-.41a1 .99-10.4 0 1 1.21.83l.33 2.33a1 1 0 0 1-.79 1.12l-3.29.67q-1.65-3.99-2.05-8.36a1 .99 78.4 0 0-1.3-.86q-4.93 1.59-4.69 6.18-4.44.2-8.98-1.06a.8.79-85.7 0 0-1 .87q.1.89-.44.44l.24-33.07a1 1 0 0 1 .99-.99l29.41-.33Zm102.93 16.41q-2.47-.71-4.11.94l-.98.42q-2.35-.76-4.71-.1a1.02 1.01-8.9 0 0-.73 1l.11 2.99q.32 8.05 3.07 15.58l.85 6.33q-.77 6.18.91 12.16c.42 1.49-.05 2.43-1.02 3.45-8.77-7.99-28.65-13.75-39.86-11.2a1 1 0 0 1-1.22-.89l-2.06-24.98q14.4 9.09 29.17 17.47c3.86 2.19 7.79 2.89 9.41-2.19a1 .95 46.4 0 0 0-.61q-1.16-3.6-5.5-6.36-19.48-12.38-24.76-14.97-4.84-2.38-8.49 2.09l-.42-16.91q24.49-.74 48.96-.47a1 1 0 0 1 .99.97l.39 15.28Z"/><path fill="#e86b8d" d="M289.45 135.71q1.16 2.68 1.54 5.29 4.71 32.37 7.51 64.96-1.15 1.91.15 3.6a1.02 1.02 0 0 0 .76.39l5.93.16a1 1 0 0 0 1.02-1.13l-.36-2.69.54-1.79q2.93-.66 5.92-.25l.79 6.46q-1.09 1.92.26 4.9-25.26.54-50.55-.44 5.13-3.49 9.65-6.58 5.41-3.7 5.15-10.12c3.19-9.7-13.77-14.31-20.37-15.94q1.47-7.49.9-15.03.54.45.44-.44a.8.79-85.7 0 1 1-.87q4.54 1.26 8.98 1.06 1.53 6.23 7.75 3.5 4.49 19.25 7.74 38.75-1.19 1.81-.14 3.84a1.01 1-17.1 0 0 1.01.53l6.96-.88a1 1 0 0 0 .83-1.29q-.29-.96.07-2.74-1.04-13-4-37.14-.32-2.57-2.43-2.78c1.84.33 1.04-2.43.75-3.5l5.06-1.65a1.01 1.01 0 0 0 .67-1.18c-1.44-6.21-1.7-12.41-3.17-18.58q-.98-4.11-.36-8.42Z"/><path fill="#df507b" d="M397.35 136.97q1.56 5.1 2.34 11.09 3.97 30.72 6.31 57.65-1.14 2.15.29 3.82a1 .98 63.3 0 0 .97.33q1.26-.27 2.49.18l.19 22.95a1 1 0 0 1-1 1.01H240.75a1 1 0 0 1-1-.97l-.33-13.12 8.83-1.12q.66 3.14 2.98 5.33a1.02 1.01 70.6 0 0 .51.25q3.64.66 6.26.66c35.89-.1 71.81.32 107.69-.01q16.43-.15 27.81 0 3.41.05 6.09-1.38a1.05 1.04 86.7 0 0 .47-.53q2-5.34-.06-10.4.75-1.87.2-3.68.4-8.22-.79-16.5 3.24-5.65 2.62-10.28-1.01-7.62-1.38-15.3c-.21-4.5-1.3-9.09-1.69-13.73q-.21-2.6-1.12-7.35-.84-4.39-.49-8.9Z"/><path fill="#f89ab0" d="m342.11 155.22-.17-4.57q3.65-4.47 8.49-2.09 5.28 2.59 24.76 14.97 4.34 2.76 5.5 6.36a1 .95 46.4 0 1 0 .61c-1.62 5.08-5.55 4.38-9.41 2.19q-14.77-8.38-29.17-17.47Z"/><path fill="#ebeef3" d="m286.71 164.75-4.21-.04-2.04-13.95a1.01 1.01 0 0 1 .97-1.15l3.75-.08a1 .99 86.2 0 1 1.01.89c.45 4.07 1.85 10.84.52 14.33Zm105.15-15.23c3.44-.73 2.95 12.87 2.84 14.98q-2.21.54-3.96.14a1 1 0 0 1-.76-.81l-2.23-13.37q1.64-1.65 4.11-.94Zm-5.09 1.36 2.02 13.87-.54.54q-1.57-.17-2.87.63a1 .99-22.4 0 1-1.5-.62l-2.44-10.53-.11-2.99a1.02 1.01-8.9 0 1 .73-1q2.36-.66 4.71.1Z"/><path fill="#ebeef3" d="m281.54 165.8.24 2.46a1 .99 86.3 0 0 1.02.9l3.7-.12q2.11.21 2.43 2.78 2.96 24.14 4 37.14l-8.73.54q-3.25-19.5-7.74-38.75l.29-.46 3.29-.67a1 1 0 0 0 .79-1.12l-.33-2.33a1 .99-10.4 0 0-1.21-.83l-1.85.41a1 1 0 0 1-1.2-.78l-2.56-12.68a.99.98 68.5 0 1 .45-1.04q4.6-2.86 5.15 2.72.6 6.01 2.26 11.83Z"/><path fill="#c91a4b" d="m387.75 150.46 2.23 13.37a1 1 0 0 0 .76.81q1.75.4 3.96-.14 1.01 1.99.3 4.21l-10.49 1.64q-2.75-7.53-3.07-15.58l2.44 10.53a1 .99-22.4 0 0 1.5.62q1.3-.8 2.87-.63-.69 1.53-.12 2.4 1.18 1.81 1.46-.33.18-1.37-.8-2.61l-2.02-13.87.98-.42Z"/><path fill="#ebeef3" d="m320.5 166.33-4.46-.33-.46-13.99a1 1 0 0 1 1.06-1.03l3.41.19a1.01 1.01 0 0 1 .95.95q.35 7.12-.5 14.21Zm108.04-8.08-.08 8-4.71-.21q-.95-6.93-.4-13.98a1 .99-85.9 0 1 1.05-.92l3.37.19a1 .99 2.4 0 1 .95 1.02l-.18 5.9ZM313.21 166l-3.42.25-1.25-13.7a1 1 0 0 1 .92-1.09l3.11-.23a1.01.99-2.4 0 1 1.08.98l.14 12.8a.79.78 71.9 0 1-.33.66q-.2.15-.25.33Zm108.17-.25q-2.06.94-3.88.46l-1.24-13.84a1 1 0 0 1 1.03-1.09l3.07.11a1 .99 87.6 0 1 .95.88q.86 6.82.07 13.48Z"/><path fill="#f0809e" d="M452.96 158.75v43.75q-1.6-2.26-3.21-2.36-9.58-.62-11.5-1.38-4.24-1.68-8.71-2.51l-.75-25.48-.33-4.52.08-8q.27-.74.69-.3a.61.58-16.3 0 0 .35.18q4.25.77 8.42.26c1.92-.24 2.77.7 4.61.64q3.81-.13 7.61-.3a1.01 1 18.9 0 0 .71-.34q1.09-1.26 2.03.36Z"/><path fill="#f89ab0" d="m276.75 170.29-.29.46q-6.22 2.73-7.75-3.5-.24-4.59 4.69-6.18a1 .99 78.4 0 1 1.3.86q.4 4.37 2.05 8.36Z"/><path fill="#c91a4b" d="m282.5 164.71 4.21.04.54.79c.29 1.07 1.09 3.83-.75 3.5l-3.7.12a1 .99 86.3 0 1-1.02-.9l-.24-2.46q.17-1.01.96-1.09Z"/><path fill="#f89ab0" d="M388.79 164.75q.98 1.24.8 2.61-.28 2.14-1.46.33-.57-.87.12-2.4l.54-.54Z"/><path fill="#c91a4b" d="m421.38 165.75.57 3.41a.51.51 0 0 0 .47.43c.62.04.81-2.81 1.33-3.55l4.71.21.33 4.52q-5.09-.67-11.22-.19-1.19-1.61-.07-4.37 1.82.48 3.88-.46Zm-108.17.25.23.15a1.01.99 19 0 1 .47.94q-.19 1.82 1.09 3.12l-4.63.42q-1.88-1.95-.58-4.38l3.42-.25Zm2.83 0 4.46.33q1.36 2.02.16 4.41l-5.41-.53.79-4.21Z"/><path fill="#ebeef3" d="M395 168.71c1.97.71 4.05 20.75 4.41 23.82q1.19 8.28.79 16.5l-8.2.43-6.64-32.78-.85-6.33 10.49-1.64Zm-80 1.5h.25l5.41.53q1.26 4.66.88 9.51l.25 19.25q.3 5.69-.54 11.29l-8-.08-.79-6.46q-1.14-15.89-2.9-31.72c-.09-.76.17-1.55.81-1.9l4.63-.42Zm113.79.56.75 25.48-.29 14.54-7.67.3q-1.45-5.43-1.62-11.09-1.75-14.7-2.39-29.42 6.13-.48 11.22.19Z"/><path fill="#e86b8d" d="m385.36 176.68 6.64 32.78q-2.17 2.24 1.09 4.62-11.02 3.44-22.38.62c6.19-3.51 12.98-7.04 15.12-14.38q.38-1.3-1.04-1.07 1.92-3.37.46-6.96c.97-1.02 1.44-1.96 1.02-3.45q-1.68-5.98-.91-12.16Z"/><path fill="#f89ab0" d="m334.71 196.5.75 7.32q-5.28-.88-9.16-4.55a1.01.99-26.7 0 0-.81-.26l-3.7.49-.25-19.25 2.7-1.88a1 .99-50.1 0 1 .99-.09l4.39 1.99a1.01 1 4.2 0 1 .54.62q2.46 8.17 3.63 15.16.11.69.92.45Z"/><path fill="#c91a4b" d="M256.5 199.29q-4.27-2.52-8.89-3.51l-2.57-.53q-.61-1.63-.5-3.3a1 .99 12.1 0 1 1.35-.87l12.96 4.94a1 .99 35.1 0 1 .3 1.69q-1.13.97-2.65 1.58Zm107.33.25q-4.88-3.94-11-3.92l-.56-3.42a1 1 0 0 1 1.33-1.1l12.69 4.75q1.75.65.24 1.75l-2.7 1.94Z"/><path fill="#e86b8d" d="m245.04 195.25 2.57.53 1.64 9.18-1.31 1.02q-1.39 1.09-1.61-.66l-1.29-10.07Zm118.79 4.29q-3.85 3.63-8.17 6.47a1 1 0 0 1-1.52-.59q-1.19-4.69-1.31-9.8 6.12-.02 11 3.92Z"/><path fill="#f89ab0" d="M247.61 195.78q4.62.99 8.89 3.51-3.26 3.29-7.25 5.67l-1.64-9.18Z"/><path fill="#df507b" d="M429.54 196.25q4.47.83 8.71 2.51 1.92.76 11.5 1.38 1.61.1 3.21 2.36.07 24 .05 48-.01 13.21-7.47 24l-1.41-.17a1.01 1 22.3 0 0-.92.38q-8.73 11.49-21.85 15.02-5.59 1.5-19.87 1.51-78.22.03-156.44-.01-10.48 0-15.84-1.39-18.64-4.85-27.19-23.29c-.56-1.2-1.37-1.49-2.48-2.05q-2.47-6.37-2.48-12.06l-.02-32.94q-.08-3.9.81-1.81a1.01 1 75.6 0 0 1 .6q2.44-.18 4.72.06 9.08.95 18.1-.39a.96.94-36.3 0 1 .57.08q2.76 1.28 5.75.62a.43.42 73.8 0 1 .48.27q.07.2.28.28l1.25 1.08q-.23 9.13.19 18.28.22 4.81 5.07 4.87 9.45.11 18.71.06a.99.99 0 0 1 .99.83c3.17 19.08 26.61 19.73 30.56-.05a1 1 0 0 1 .98-.8l80.3.03a1 1 0 0 1 .98.81c3.89 19.84 26.36 19.17 30.71-.09a1 1 0 0 1 1-.78q7.47.15 14.95-.05c4.09-.11 5-2.66 5.03-6.4q.07-10.35.02-20.71c0-.87.34-1.39 1.05-1.79q3.95.62 7.93.14a1.02 1-84.4 0 0 .83-.69q.49-1.52-.05-3.16l.29-14.54Z"/><path fill="#c91a4b" d="M277.76 198.47q.26 6.42-5.15 10.12-4.52 3.09-9.65 6.58l-14.71 3.62-8.83 1.12-9.42.38-1.25-1.08q-.31-1.84.21-3.05c15.79.82 39.62-3.07 48.8-17.69Z"/><path fill="#e86b8d" d="m335.46 203.82 1.29 12.64-.46.29c-1.27-1.42-12.45-1.26-15.02-1.41q1.08-2.38-.02-4.55.84-5.6.54-11.29l3.7-.49a1.01.99-26.7 0 1 .81.26q3.88 3.67 9.16 4.55Z"/><path fill="#c91a4b" d="M384.79 199.25q1.42-.23 1.04 1.07c-2.14 7.34-8.93 10.87-15.12 14.38q-15.94 5.76-32.99 5.56a1 1 0 0 1-.8-.43q-.94-1.34-.63-3.08l.46-.29c14.98.29 39.31-3.24 48.04-17.21Z"/><path fill="#f0809e" d="M419.96 200q.17 5.66 1.62 11.09-2.21-.06-1.04 3.41c-.71.4-1.05.92-1.05 1.79q.05 10.36-.02 20.71c-.03 3.74-.94 6.29-5.03 6.4q-7.48.2-14.95.05a1 1 0 0 0-1 .78c-4.35 19.26-26.82 19.93-30.71.09a1 1 0 0 0-.98-.81l-80.3-.03a1 1 0 0 0-.98.8c-3.95 19.78-27.39 19.13-30.56.05a.99.99 0 0 0-.99-.83q-9.26.05-18.71-.06-4.85-.06-5.07-4.87-.42-9.15-.19-18.28l9.42-.38.33 13.12a1 1 0 0 0 1 .97h168.19a1 1 0 0 0 1-1.01l-.19-22.95 3.34.08a.99.98 11.3 0 0 .95-.63q.62-1.58-.33-3.24l.25-4.25.02-.31a.82.8-3.8 0 1 .66-.74l5.32-.95Zm-144.07 45.02q.89-1.51-.86-1.51l-9.27-.01a1 1 0 0 0-.96 1.28q.76 2.61 2.68 3.76 4.7 2.8 8.41-3.52Zm111.67 1.54q.62-.85 1.05-1.52.98-1.54-.84-1.54h-9.3a1 1 0 0 0-.91 1.41q1.42 3.12 2.77 3.82 4.1 2.13 7.23-2.17Z"/><path fill="#c91a4b" d="m406 205.71 7.71.54q.95 1.66.33 3.24a.99.98 11.3 0 1-.95.63l-3.34-.08q-1.23-.45-2.49-.18a1 .98 63.3 0 1-.97-.33q-1.43-1.67-.29-3.82Zm-107.5.25 7.5.33.36 2.69a1 1 0 0 1-1.02 1.13l-5.93-.16a1.02 1.02 0 0 1-.76-.39q-1.3-1.69-.15-3.6Zm-5.57 3q-.36 1.78-.07 2.74a1 1 0 0 1-.83 1.29l-6.96.88a1.01 1-17.1 0 1-1.01-.53q-1.05-2.03.14-3.84l8.73-.54Zm107.27.07q.55 1.81-.2 3.68l-6.91 1.37q-3.26-2.38-1.09-4.62l8.2-.43Zm-86.95 1.68 8 .08q1.1 2.17.02 4.55-3.92-.54-7.76.27-1.35-2.98-.26-4.9Zm116 .08q.54 1.64.05 3.16a1.02 1-84.4 0 1-.83.69q-3.98.48-7.93-.14-1.17-3.47 1.04-3.41l7.67-.3Z"/><path fill="#f0809e" d="M400 212.71q2.06 5.06.06 10.4a1.05 1.04 86.7 0 1-.47.53q-2.68 1.43-6.09 1.38-11.38-.15-27.81 0c-35.88.33-71.8-.09-107.69.01q-2.62 0-6.26-.66a1.02 1.01 70.6 0 1-.51-.25q-2.32-2.19-2.98-5.33l14.71-3.62q25.29.98 50.55.44 3.84-.81 7.76-.27c2.57.15 13.75-.01 15.02 1.41q-.31 1.74.63 3.08a1 1 0 0 0 .8.43q17.05.2 32.99-5.56 11.36 2.82 22.38-.62l6.91-1.37Z"/><path fill="#df507b" d="M275.89 245.02q-3.71 6.32-8.41 3.52-1.92-1.15-2.68-3.76a1 1 0 0 1 .96-1.28l9.27.01q1.75 0 .86 1.51Zm111.67 1.54q-3.13 4.3-7.23 2.17-1.35-.7-2.77-3.82a1 1 0 0 1 .91-1.41h9.3q1.82 0 .84 1.54-.43.67-1.05 1.52Z"/><path fill="#825f69" d="M199.54 264.5c1.11.56 1.92.85 2.48 2.05q8.55 18.44 27.19 23.29 5.36 1.39 15.84 1.39 78.22.04 156.44.01 14.28-.01 19.87-1.51 13.12-3.53 21.85-15.02a1.01 1 22.3 0 1 .92-.38l1.41.17q-9.28 13.09-23.91 16.98-5.64 1.5-18.53 1.5-76.67.04-153.36.02-14.58 0-19.89-1.2c-13.51-3.05-26.09-13.41-30.31-27.3Z"/></svg>